{
  "accessors": [
    {
      "bufferView": 2,
      "componentType": 5126,
      "count": 10480,
      "max": [
        0.6707106828689575,
        0.588728666305542,
        1.0750025510787964
      ],
      "min": [
        -0.6707106828689575,
        -0.19940230250358582,
        -0.9640587568283081
      ],
      "type": "VEC3"
    },
    {
      "bufferView": 2,
      "byteOffset": 125760,
      "componentType": 5126,
      "count": 10480,
      "max": [
        1.0,
        1.0,
        1.0
      ],
      "min": [
        -1.0,
        -1.0,
        -1.0
      ],
      "type": "VEC3"
    },
    {
      "bufferView": 3,
      "componentType": 5126,
      "count": 10480,
      "max": [
        1.0,
        1.0,
        1.0,
        1.0
      ],
      "min": [
        -1.0,
        -1.0,
        -1.0,
        -1.0
      ],
      "type": "VEC4"
    },
    {
      "bufferView": 3,
      "byteOffset": 167680,
      "componentType": 5126,
      "count": 10480,
      "max": [
        1.0,
        1.0,
        1.0,
        1.0
      ],
      "min": [
        0.9960784316062927,
        0.9960784316062927,
        0.9960784316062927,
        1.0
      ],
      "type": "VEC4"
    },
    {
      "bufferView": 1,
      "componentType": 5126,
      "count": 10480,
      "max": [
        0.9960818290710449,
        0.98716139793396
      ],
      "min": [
        0.005885958671569824,
        0.00024938464048318565
      ],
      "type": "VEC2"
    },
    {
      "bufferView": 1,
      "byteOffset": 83840,
      "componentType": 5126,
      "count": 10480,
      "max": [
        0.9995926022529602,
        0.9985659122467041
      ],
      "min": [
        0.0,
        -0.00026010628789663315
      ],
      "type": "VEC2"
    },
    {
      "bufferView": 0,
      "componentType": 5125,
      "count": 36645,
      "type": "SCALAR"
    },
    {
      "bufferView": 2,
      "byteOffset": 251520,
      "componentType": 5126,
      "count": 16,
      "max": [
        0.15349631011486053,
        0.022089149802923203,
        0.5502445697784424
      ],
      "min": [
        -0.15349631011486053,
        -0.07158803194761276,
        0.27419352531433105
      ],
      "type": "VEC3"
    },
    {
      "bufferView": 2,
      "byteOffset": 251712,
      "componentType": 5126,
      "count": 16,
      "max": [
        1.0,
        0.0,
        0.0
      ],
      "min": [
        -1.0,
        0.0,
        0.0
      ],
      "type": "VEC3"
    },
    {
      "bufferView": 3,
      "byteOffset": 335360,
      "componentType": 5126,
      "count": 16,
      "max": [
        1.0,
        1.0,
        1.0,
        1.0
      ],
      "min": [
        1.0,
        1.0,
        1.0,
        1.0
      ],
      "type": "VEC4"
    },
    {
      "bufferView": 1,
      "byteOffset": 167680,
      "componentType": 5126,
      "count": 16,
      "max": [
        0.9779840111732483,
        0.995810329914093
      ],
      "min": [
        0.013615339994430542,
        -0.0035847066901624203
      ],
      "type": "VEC2"
    },
    {
      "bufferView": 1,
      "byteOffset": 167808,
      "componentType": 5126,
      "count": 16,
      "max": [
        0.9779840111732483,
        0.995810329914093
      ],
      "min": [
        0.013615339994430542,
        -0.0035847066901624203
      ],
      "type": "VEC2"
    },
    {
      "bufferView": 0,
      "byteOffset": 146580,
      "componentType": 5125,
      "count": 24,
      "type": "SCALAR"
    }
  ],
  "asset": {
    "extras": {
      "author": "tashtego (https://sketchfab.com/tashtego)",
      "license": "CC-BY-NC-4.0 (http://creativecommons.org/licenses/by-nc/4.0/)",
      "source": "https://sketchfab.com/3d-models/space-shuttle-buran-05b1ddcf2cae4d878072886b0fdd0f4c",
      "title": "Space Shuttle Buran"
    },
    "generator": "Sketchfab-12.71.0",
    "version": "2.0"
  },
  "bufferViews": [
    {
      "buffer": 0,
      "byteLength": 146676,
      "name": "floatBufferViews",
      "target": 34963
    },
    {
      "buffer": 0,
      "byteLength": 167936,
      "byteOffset": 146676,
      "byteStride": 8,
      "name": "floatBufferViews",
      "target": 34962
    },
    {
      "buffer": 0,
      "byteLength": 251904,
      "byteOffset": 314612,
      "byteStride": 12,
      "name": "floatBufferViews",
      "target": 34962
    },
    {
      "buffer": 0,
      "byteLength": 335616,
      "byteOffset": 566516,
      "byteStride": 16,
      "name": "floatBufferViews",
      "target": 34962
    }
  ],
  "buffers": [
    {
      "byteLength": 902132,
      "uri": "scene.bin"
    }
  ],
  "images": [
    {
      "uri": "textures/buran_Color_baseColor.png"
    },
    {
      "uri": "textures/buran_Color_metallicRoughness.png"
    },
    {
      "uri": "textures/buran_Color_normal.png"
    },
    {
      "uri": "textures/buran_insignia_baseColor.png"
    }
  ],
  "materials": [
    {
      "name": "buran_Color",
      "normalTexture": {
        "index": 2
      },
      "occlusionTexture": {
        "index": 1
      },
      "pbrMetallicRoughness": {
        "baseColorTexture": {
          "index": 0
        },
        "metallicRoughnessTexture": {
          "index": 1
        },
        "roughnessFactor": 0.6
      }
    },
    {
      "alphaMode": "BLEND",
      "name": "buran_insignia",
      "pbrMetallicRoughness": {
        "baseColorTexture": {
          "index": 3
        },
        "metallicFactor": 0.0,
        "roughnessFactor": 0.6
      }
    }
  ],
  "meshes": [
    {
      "name": "Buran_buran_Color_0",
      "primitives": [
        {
          "attributes": {
            "COLOR_0": 3,
            "NORMAL": 1,
            "POSITION": 0,
            "TANGENT": 2,
            "TEXCOORD_0": 4,
            "TEXCOORD_1": 5
          },
          "indices": 6,
          "material": 0,
          "mode": 4
        }
      ]
    },
    {
      "name": "Buran_buran_insignia_0",
      "primitives": [
        {
          "attributes": {
            "COLOR_0": 9,
            "NORMAL": 8,
            "POSITION": 7,
            "TEXCOORD_0": 10,
            "TEXCOORD_1": 11
          },
          "indices": 12,
          "material": 1,
          "mode": 4
        }
      ]
    }
  ],
  "nodes": [
    {
      "children": [
        1
      ],
      "matrix": [
        1.0,
        0.0,
        0.0,
        0.0,
        0.0,
        2.220446049250313e-16,
        -1.0,
        0.0,
        0.0,
        1.0,
        2.220446049250313e-16,
        0.0,
        0.0,
        0.0,
        0.0,
        1.0
      ],
      "name": "Sketchfab_model"
    },
    {
      "children": [
        2
      ],
      "matrix": [
        1.0,
        0.0,
        0.0,
        0.0,
        0.0,
        0.0,
        1.0,
        0.0,
        0.0,
        -1.0,
        0.0,
        0.0,
        0.0,
        0.0,
        0.0,
        1.0
      ],
      "name": "02e3c95325da4841b006b3581b2b62ff.fbx"
    },
    {
      "children": [
        3
      ],
      "name": "RootNode"
    },
    {
      "children": [
        4,
        5
      ],
      "name": "Buran"
    },
    {
      "mesh": 0,
      "name": "Buran_buran_Color_0"
    },
    {
      "mesh": 1,
      "name": "Buran_buran_insignia_0"
    }
  ],
  "samplers": [
    {
      "magFilter": 9729,
      "minFilter": 9987,
      "wrapS": 10497,
      "wrapT": 10497
    }
  ],
  "scene": 0,
  "scenes": [
    {
      "name": "Sketchfab_Scene",
      "nodes": [
        0
      ]
    }
  ],
  "textures": [
    {
      "sampler": 0,
      "source": 0
    },
    {
      "sampler": 0,
      "source": 1
    },
    {
      "sampler": 0,
      "source": 2
    },
    {
      "sampler": 0,
      "source": 3
    }
  ]
}
